# xmcd
#
# Track frame offsets:
#	150
#	8582
#	19782
#	32267
#	44522
#	55363
#	64538
#	77425
#	88579
#	101025
#	112791
#
# Disc length: 1627 seconds
#
# Revision: 0
# Processed by: cddbd v1.5.2PL0 Copyright (c) Steve Scherf et al.
# Submitted via: EasyCDDAExtractor 10.5.1.1
#
DISCID=7406590b
DTITLE=Rye Holler Boys - Ole Gravel Road
DYEAR=1900
DGENRE=
TTITLE0=Big Mon
TTITLE1=Little Maggie
TTITLE2=Holding The Ladder 
TTITLE3=Ole Gravel Road
TTITLE4=Clod Sheets Of Rain
TTITLE5=Will You Be Loving Another Man
TTITLE6=Are you Washed In The Blood
TTITLE7=Your Love Is Like A Flower
TTITLE8=Whoa Mule
TTITLE9=Honey, You Don't Know My Mind
TTITLE10=Rollin' In My Sweet Baby's Arms
EXTD=
EXTT0=
EXTT1=
EXTT2=
EXTT3=
EXTT4=
EXTT5=
EXTT6=
EXTT7=
EXTT8=
EXTT9=
EXTT10=
PLAYORDER=
